<svg width="18" height="22" viewBox="0 0 18 22" fill="none" xmlns="http://www.w3.org/2000/svg">
<path d="M7.3565 13.7916C8.96861 13.7916 10.2755 12.4848 10.2755 10.8726C10.2755 9.26052 8.96861 7.95364 7.3565 7.95364C5.74438 7.95364 4.4375 9.26052 4.4375 10.8726C4.4375 12.4848 5.74438 13.7916 7.3565 13.7916Z" fill="white"/>
<path d="M2.919 5.86384C4.53111 5.86384 5.83799 4.55696 5.83799 2.94484C5.83799 1.33273 4.53111 0.0258484 2.919 0.0258484C1.30688 0.0258484 0 1.33273 0 2.94484C0 4.55696 1.30688 5.86384 2.919 5.86384Z" fill="white"/>
<path d="M15.0831 13.7916C16.6952 13.7916 18.0021 12.4848 18.0021 10.8726C18.0021 9.26052 16.6952 7.95364 15.0831 7.95364C13.4709 7.95364 12.1641 9.26052 12.1641 10.8726C12.1641 12.4848 13.4709 13.7916 15.0831 13.7916Z" fill="white"/>
<path d="M11.2448 5.05361e-08C10.8519 -7.2609e-05 10.4629 0.0782065 10.1006 0.230258C9.7383 0.38231 9.40997 0.605082 9.1348 0.885541C8.85964 1.166 8.64316 1.49852 8.49803 1.86364C8.35291 2.22876 8.28205 2.61916 8.28961 3.01199C8.32116 3.79749 8.65779 4.53972 9.22795 5.08094C9.79811 5.62216 10.5569 5.9197 11.3429 5.91032H15.0395C15.4275 5.91032 15.8118 5.83388 16.1704 5.68537C16.5289 5.53686 16.8547 5.31919 17.1291 5.04477C17.4035 4.77036 17.6212 4.44459 17.7697 4.08605C17.9182 3.72751 17.9946 3.34324 17.9946 2.95516V2.95516C17.9946 2.1714 17.6833 1.41975 17.1291 0.865547C16.5749 0.311346 15.8232 5.05361e-08 15.0395 5.05361e-08H11.2448Z" fill="white"/>
<path d="M15.0831 21.5128C16.6952 21.5128 18.0021 20.2059 18.0021 18.5938C18.0021 16.9817 16.6952 15.6748 15.0831 15.6748C13.4709 15.6748 12.1641 16.9817 12.1641 18.5938C12.1641 20.2059 13.4709 21.5128 15.0831 21.5128Z" fill="white"/>
</svg>
